<?xml version="1.0" standalone="no"?>
<!DOCTYPE svg PUBLIC "-//W3C//DTD SVG 20010904//EN"
 "http://www.w3.org/TR/2001/REC-SVG-20010904/DTD/svg10.dtd">
<svg version="1.0" xmlns="http://www.w3.org/2000/svg"
 width="1000.000000pt" height="1000.000000pt" viewBox="0 0 1000.000000 1000.000000"
 preserveAspectRatio="xMidYMid meet">
<metadata>
Created by potrace 1.14, written by Peter Selinger 2001-2017
</metadata>
<g transform="translate(0.000000,1000.000000) scale(0.100000,-0.100000)"
fill="#000000" stroke="none">
<path d="M0 5305 l0 -4695 172 117 c638 433 1073 785 1473 1194 628 642 1027
1298 1310 2154 443 1339 345 2647 -296 3927 -172 344 -412 727 -663 1062 -164
219 -289 365 -518 606 -101 107 -213 225 -247 263 l-63 67 -584 0 -584 0 0
-4695z"/>
<path d="M2361 9990 c8 -5 166 -59 350 -120 184 -62 447 -154 584 -205 1244
-465 2282 -1079 3145 -1860 172 -156 535 -525 664 -675 731 -853 1133 -1715
1252 -2685 36 -296 29 -734 -17 -1064 -110 -792 -457 -1622 -962 -2301 -123
-166 -150 -199 -512 -635 -160 -192 -307 -371 -328 -397 l-38 -48 1750 0 1751
0 0 5000 0 5000 -3827 0 c-2348 0 -3822 -4 -3812 -10z"/>
<path d="M1825 9851 c23 -45 94 -101 263 -206 835 -520 1625 -1200 2210 -1901
918 -1101 1323 -2356 1162 -3608 -104 -809 -450 -1625 -1000 -2355 -454 -603
-1025 -1126 -1774 -1622 l-238 -159 860 0 859 0 43 48 c24 26 159 169 300 317
514 541 664 721 870 1044 497 779 782 1615 850 2490 13 173 13 580 0 747 -88
1111 -524 2139 -1286 3029 -244 286 -657 683 -979 941 -553 445 -1246 863
-1957 1180 -103 46 -190 84 -193 84 -3 0 1 -13 10 -29z"/>
</g>
</svg>
